<svg width="13" height="14" viewBox="0 0 13 14" fill="none" xmlns="http://www.w3.org/2000/svg">
<path d="M6.22387 0.583822L6.28635 0.588681C6.40424 0.615207 6.47832 0.732285 6.45179 0.850184L6.41815 0.976919C6.39402 1.05411 6.36643 1.11669 6.33536 1.16465C4.6835 3.71516 5.40899 5.24825 6.52286 5.413C7.67494 5.5834 8.5177 4.81156 8.33738 3.14558C8.30632 2.85862 8.28035 2.6168 8.25948 2.42011C8.25457 2.3738 8.26589 2.32722 8.29151 2.28832C8.35258 2.19562 8.47724 2.16999 8.56994 2.23106L8.71396 2.33284C9.05774 2.59291 9.45793 3.00767 9.91454 3.57712C11.6337 5.72112 11.8233 7.54158 11.8336 8.46125L11.8334 8.66438C11.7959 11.6531 9.58337 13.7084 6.58337 13.7084C3.58337 13.7084 1.33337 11.6534 1.33337 8.66438C1.34666 6.40141 2.48982 3.21602 5.64576 0.964182C5.76364 0.880073 5.91771 0.767476 6.10799 0.62639C6.15913 0.588475 6.22424 0.574708 6.28635 0.588681L6.22387 0.583822ZM8.77527 6.27531L5.70837 9.34221L4.39148 8.02531C4.15228 7.78611 3.76447 7.78611 3.52527 8.02531C3.28607 8.2645 3.28607 8.65232 3.52527 8.89151L5.27527 10.6415C5.51447 10.8807 5.90228 10.8807 6.14148 10.6415L9.64148 7.14151C9.88067 6.90232 9.88067 6.5145 9.64148 6.27531C9.40228 6.03611 9.01447 6.03611 8.77527 6.27531Z" fill="white"/>
</svg>
