<svg width="116" height="24" viewBox="0 0 116 24" fill="none" xmlns="http://www.w3.org/2000/svg">
<path d="M13.2281 23H8.60313L0.759377 0.453125H5.19688L10.9156 18.6719H11.0094L16.7281 0.453125H21.0719L13.2281 23ZM42.8719 19.5938V23H28.2781V0.453125H42.8719V3.85938H32.3094V9.95312H42.2938V13.1562H32.3094V19.5938H42.8719ZM55.2031 3.71875V11.4219H59.75C61.0312 11.4219 62.026 11.0833 62.7344 10.4062C63.4427 9.72917 63.7969 8.78125 63.7969 7.5625C63.7969 6.375 63.4271 5.4375 62.6875 4.75C61.9479 4.0625 60.9427 3.71875 59.6719 3.71875H55.2031ZM55.2031 14.5156V23H51.1719V0.453125H60.125C62.5521 0.453125 64.4583 1.08333 65.8438 2.34375C67.2292 3.59375 67.9219 5.30208 67.9219 7.46875C67.9219 8.97917 67.5469 10.3125 66.7969 11.4688C66.0469 12.6146 65.0052 13.4271 63.6719 13.9062L68.5938 23H64L59.5625 14.5156H55.2031ZM75.05 16.6562H78.9563C79.0813 17.6875 79.6125 18.5208 80.55 19.1562C81.4875 19.7812 82.649 20.0938 84.0344 20.0938C85.3885 20.0938 86.4927 19.7917 87.3469 19.1875C88.2115 18.5833 88.6438 17.8125 88.6438 16.875C88.6438 16.0625 88.3313 15.4062 87.7063 14.9062C87.0813 14.3958 86.0604 13.974 84.6438 13.6406L81.7219 12.9531C79.649 12.474 78.1073 11.7292 77.0969 10.7188C76.0969 9.70833 75.5969 8.39583 75.5969 6.78125C75.5969 4.79167 76.3781 3.17708 77.9406 1.9375C79.5031 0.697917 81.5188 0.078125 83.9875 0.078125C86.4667 0.078125 88.4615 0.692708 89.9719 1.92188C91.4927 3.14062 92.2792 4.74479 92.3313 6.73438H88.4875C88.3938 5.68229 87.9406 4.85938 87.1281 4.26562C86.3156 3.66146 85.2583 3.35938 83.9563 3.35938C82.6854 3.35938 81.6542 3.64583 80.8625 4.21875C80.0813 4.79167 79.6906 5.54688 79.6906 6.48438C79.6906 7.23438 79.9927 7.84375 80.5969 8.3125C81.2115 8.78125 82.2115 9.18229 83.5969 9.51562L86.1906 10.1094C88.4719 10.6302 90.1281 11.3906 91.1594 12.3906C92.1906 13.3906 92.7063 14.7292 92.7063 16.4062C92.7063 18.5417 91.9042 20.2396 90.3 21.5C88.7063 22.75 86.5448 23.375 83.8156 23.375C81.2115 23.375 79.1177 22.776 77.5344 21.5781C75.9615 20.3698 75.1333 18.7292 75.05 16.6562ZM115.147 19.5938V23H100.553V0.453125H115.147V3.85938H104.584V9.95312H114.569V13.1562H104.584V19.5938H115.147Z" fill="#232324"/>
</svg>
