<svg width="16" height="12" viewBox="0 0 16 12" fill="none" xmlns="http://www.w3.org/2000/svg">
<path d="M4.70588 6.85714C7.21399 6.85714 9.41177 7.91479 9.41177 10.2367C9.41177 11.4538 8.97941 12 8.06459 12H1.34717C0.43236 12 0 11.4538 0 10.2367C0 7.91479 2.19778 6.85714 4.70588 6.85714ZM11.2941 6.85714C13.8022 6.85714 16 7.91479 16 10.2367C16 11.4538 15.5676 12 14.6528 12H10.9804C10.6339 12 10.3529 11.693 10.3529 11.3143C10.3529 10.9356 10.6339 10.6286 10.9804 10.6286L14.6904 10.6287C14.701 10.6289 14.7099 10.6292 14.7171 10.6297L14.725 10.6306L14.7265 10.6205C14.7331 10.5648 14.7416 10.4689 14.7443 10.3273L14.7451 10.2367C14.7451 8.97967 13.1843 8.22857 11.2941 8.22857C11.0258 8.22857 10.7305 8.24916 10.4347 8.29087C10.091 8.33932 9.77641 8.07412 9.73208 7.69853C9.68774 7.32293 9.9304 6.97917 10.2741 6.93071C10.6234 6.88147 10.9723 6.85714 11.2941 6.85714ZM4.70588 8.22857C2.81568 8.22857 1.2549 8.97967 1.2549 10.2367C1.2549 10.429 1.26554 10.5537 1.27347 10.6205L1.27435 10.6306L1.28286 10.6297L1.29497 10.6291L8.1122 10.6289C8.11852 10.6291 8.12407 10.6294 8.1289 10.6297L8.13678 10.6306L8.1383 10.6205C8.14622 10.5537 8.15686 10.429 8.15686 10.2367C8.15686 8.97967 6.59609 8.22857 4.70588 8.22857ZM11.2941 0C12.7673 0 13.9608 1.30429 13.9608 2.91429C13.9608 4.52428 12.7673 5.82857 11.2941 5.82857C9.82092 5.82857 8.62745 4.52428 8.62745 2.91429C8.62745 1.30429 9.82092 0 11.2941 0ZM4.70588 0C6.17908 0 7.37255 1.30429 7.37255 2.91429C7.37255 4.52428 6.17908 5.82857 4.70588 5.82857C3.23268 5.82857 2.03922 4.52428 2.03922 2.91429C2.03922 1.30429 3.23268 0 4.70588 0ZM11.2941 1.37143C10.514 1.37143 9.88235 2.06171 9.88235 2.91429C9.88235 3.76686 10.514 4.45714 11.2941 4.45714C12.0743 4.45714 12.7059 3.76686 12.7059 2.91429C12.7059 2.06171 12.0743 1.37143 11.2941 1.37143ZM4.70588 1.37143C3.92575 1.37143 3.29412 2.06171 3.29412 2.91429C3.29412 3.76686 3.92575 4.45714 4.70588 4.45714C5.48602 4.45714 6.11765 3.76686 6.11765 2.91429C6.11765 2.06171 5.48602 1.37143 4.70588 1.37143Z" fill="#99A2AD"/>
</svg>
